<?xml version="1.0"?>
<svg xmlns="http://www.w3.org/2000/svg" id="Layer_1" enable-background="new 0 0 512.01 512.01" height="512px" viewBox="0 0 512.01 512.01" width="512px" class=""><g><path d="m458.795 106.431h-300.025l-5.252 125.89-.013 217.089h319.582z" fill="#fabe2c" data-original="#FABE2C" class="" data-old_color="#fabe2c" style="fill:#6BAADC"/><path d="m458.795 106.431h-150.013v342.979h164.305z" fill="#ff9500" data-original="#FF9500" class="active-path" data-old_color="#ff9500" style="fill:#418ACE"/><path d="m471.837 419.41h-318.332v92.6h322.19z" fill="#fed330" data-original="#FED330"/><path d="m471.837 419.41h-163.055v92.6h166.913z" fill="#fabe2c" data-original="#FABE2C" class="" data-old_color="#fabe2c" style="fill:#6BAADC"/><path d="m389.509 164.569h-30v-83.843c0-27.97-22.756-50.726-50.726-50.726s-50.726 22.755-50.726 50.726v83.844h-30v-83.844c-.001-44.513 36.213-80.726 80.725-80.726s80.726 36.213 80.726 80.726v83.843z" fill="#f4f1f1" data-original="#F4F1F1" class=""/><path d="m308.782 0v30c27.97 0 50.726 22.755 50.726 50.726v83.844h30v-83.844c.001-44.513-36.213-80.726-80.726-80.726z" fill="#eceae7" data-original="#ECEAE7" class=""/><path d="m36.315 217.947h272.463v294.009h-272.463z" fill="#ff3d7d" data-original="#FF3D7D" class="" style="fill:#4B42F0" data-old_color="#ff3d7d"/><path d="m172.546 217.947h136.232v294.009h-136.232z" fill="#b10f61" data-original="#B10F61" class="" style="fill:#0F2DB1" data-old_color="#b10f61"/><path d="m172.547 338.27c-38.94 0-70.621-31.68-70.621-70.62v-49.703h30v49.703c0 22.398 18.222 40.62 40.62 40.62s40.621-18.222 40.621-40.62v-49.703h30v49.703c0 38.939-31.68 70.62-70.62 70.62z" fill="#f4f1f1" data-original="#F4F1F1" class=""/><path d="m213.167 217.947v49.703c0 22.398-18.222 40.62-40.62 40.62v30c38.94 0 70.62-31.68 70.62-70.62v-49.703z" fill="#eceae7" data-original="#ECEAE7" class=""/></g> </svg>
